<svg xmlns="http://www.w3.org/2000/svg" xmlns:xlink="http://www.w3.org/1999/xlink"
    viewBox="0 0 750.06 369.98">
    <defs>
        <style>.cls-1{fill:url(#linear-gradient);}.cls-2{font-size:163.37px;fill:#1ca4c4;}.cls-2,.cls-3{font-family:Calibre-Semibold,
            Calibre;font-weight:600;}.cls-3{font-size:74.19px;fill:#39b54a;}</style>
        <linearGradient id="linear-gradient" x1="108.45" x2="108.45" y2="356.1"
            gradientUnits="userSpaceOnUse">
            <stop offset="0" stop-color="#39b54a" />
            <stop offset="0.19" stop-color="#35b35b" />
            <stop offset="0.56" stop-color="#2aac88" />
            <stop offset="1" stop-color="#1ca4c4" />
        </linearGradient>
    </defs>
    <g id="Layer_2" data-name="Layer 2">
        <g id="Layer_1-2" data-name="Layer 1">
            <path class="cls-1"
                d="M55,92.47l-.79-4.39,4.45-.31c.49,0,49-2.79,56.19,49.47l.48,3.52-3.43.9a38.78,38.78,0,0,1-9.11,1A42.88,42.88,0,0,1,79.63,136C67,128,58.76,113.35,55,92.47Zm77.65,52.75,2.78,1.18a38.16,38.16,0,0,0,13.88,2.51,36.36,36.36,0,0,0,15-3.18c11.45-5.15,20.08-16.2,25.64-32.84l1.2-3.6-3.7-.83c-.41-.09-41.73-8.86-54,33.85Zm6.67,69.51c-4.11.74-7.14,2-10.61,2s-6.36-1-10.36-2c-.22,5.6,5,10.2,10.5,10A10.67,10.67,0,0,0,139.32,214.73ZM94.4,264.13c1,6.59,7.36,11.32,14,11.19a14.75,14.75,0,0,0,14-11.19c-5.23,1.3-9.35,3.13-14.18,3.2S99.45,265.84,94.4,264.13Zm48.18,20.78c20.95-21.93,31.78-48.81,31.33-77.74v-.84l-.32-.77a43.29,43.29,0,0,0-23-22c-13.57-5.47-29.89-4-48.49,4.3l-2,.9-.53,2.13A241.36,241.36,0,0,0,95,216.46c-2.38,19.53-.64,30.75,5.48,35.31,2.86,2.13,7.92,3.69,15.82-1a4.5,4.5,0,0,0-4.58-7.75c-2.76,1.62-5,2.19-5.87,1.5-.49-.36-4.69-4.2-1.92-26.92,1.14-9.43,3.06-18.42,4-22.4,15.35-6.49,28.55-7.61,39.28-3.35a35,35,0,0,1,17.79,16.37c.18,26.41-9.45,50-28.63,70.22a124.17,124.17,0,0,1-27.55,21.77C68.65,272,58.47,245.7,57,228.48c-1.48-17.9,5.8-31.78,12.49-38.23,12.82-12.37,22.89-17.62,31.78-22.25,6.23-3.25,12.11-6.31,17.73-11.24,13.06-11.46,18.65-34.61,13.48-52.43-1.94-5.39-4.71-10.4-8.09-17C120.16,79,115.17,71.1,111,62.6c7,5.79,15,15.81,20,26.43,1.82,3.4,3.61,7.16,5,10.23,6.89-12.62,4.89-43.7-4-56.7C119.66,24.81,86.93,5,85.54,4.2l-7-4.2.18,8.16c0,1.5.87,37,6.38,50.48,4.1,10,12.11,17.12,19.86,24,7,6.22,13.69,12.09,17.27,19.85,6.81,14.71,2.46,37.37-9.13,47.54-4.81,4.22-10,6.91-15.95,10-9,4.67-20.11,10.48-33.87,23.75-8.1,7.82-17,24.42-15.21,45.46,1.61,19.47,13,49.16,57.83,80l2.17,1.49,2.36-1.16C111.1,309.23,126.84,301.4,142.58,284.91Zm58.35,4.31c-.55.94-1.8,2.82-2.44,3.7L196,296.55l-2.69,3.5a122.62,122.62,0,0,1-14.94,16,117.06,117.06,0,0,1-54.61,27.49,64.32,64.32,0,0,1,10.79-23.45c10.09-13.85,23.67-25.18,38.24-34.3-2.49,11.06-7.52,21.75-15.5,29.93,8.86-6,15.25-15.31,19.31-25.11,2.17-5,3.47-10.92,5-16.14-28.2,11.29-57.71,32.18-67.41,62.3-1.93,6.06-2.47,13-3,19.37l6.42-.52c19-2.1,37.13-9.83,52.55-20.93a114.82,114.82,0,0,0,31.24-34.55c1.23-2.28,3.28-5.86,4.35-8.19a131.82,131.82,0,0,0,11.16-34.83A180.61,180.61,0,0,1,200.93,289.22ZM35.3,274.43c1.56,5.2,2.87,11.18,5,16.14,4.06,9.8,10.45,19.13,19.31,25.11-8-8.21-13-18.86-15.5-30,1.49.94,3,1.91,4.44,2.89,12.79,8.67,24.77,18.94,33.8,31.45A64.56,64.56,0,0,1,93.18,343.5,117.06,117.06,0,0,1,38.57,316a122.58,122.58,0,0,1-14.94-16l-2.69-3.5-2.53-3.63c-.66-.9-1.87-2.74-2.44-3.7A180.61,180.61,0,0,1,0,257.08a131.82,131.82,0,0,0,11.16,34.83c1.06,2.33,3.14,5.93,4.35,8.19a114.82,114.82,0,0,0,31.24,34.55c15.42,11.1,33.57,18.83,52.55,20.93l6.42.52c-.52-6.34-1.09-13.32-3-19.37C93,306.61,63.49,285.72,35.3,274.43Z" />
            <text class="cls-2" transform="translate(236.6 269.36)">Nurture</text>
            <text class="cls-3" transform="translate(242.45 353.28)">Mental Health</text>
        </g>
    </g>
</svg>